<svg xmlns="http://www.w3.org/2000/svg" viewBox="0 0 45 45"><defs><style>.cls-1{fill:#02a66b;}.cls-2{fill:#fff;}</style></defs><g id="Layer_2" data-name="Layer 2"><g id="Layer_7" data-name="Layer 7"><g id="Settings"><circle class="cls-1" cx="22.5" cy="22.5" r="22.5"/><path class="cls-2" d="M32.85,22.5A10.35,10.35,0,1,1,27,13.19,10.35,10.35,0,0,1,32.85,22.5Z"/><rect class="cls-2" x="20.25" y="9" width="4.5" height="26.55"/><rect class="cls-2" x="20.47" y="9.23" width="4.5" height="26.55" transform="translate(45.22 -0.22) rotate(90)"/><rect class="cls-2" x="20.32" y="9.07" width="4.5" height="26.73" transform="translate(-9.25 22.53) rotate(-45)"/><rect class="cls-2" x="20.63" y="8.75" width="4.5" height="27.37" transform="translate(22.57 -9.61) rotate(45)"/><path class="cls-1" d="M27,22.5A4.5,4.5,0,1,1,22.5,18a4.44,4.44,0,0,1,2,.45A4.49,4.49,0,0,1,27,22.5Z"/></g></g></g></svg>